<?xml version="1.0" standalone="no"?>
<!DOCTYPE svg PUBLIC "-//W3C//DTD SVG 20010904//EN"
 "http://www.w3.org/TR/2001/REC-SVG-20010904/DTD/svg10.dtd">
<svg version="1.0" xmlns="http://www.w3.org/2000/svg"
 width="218.000000pt" height="179.000000pt" viewBox="0 0 218.000000 179.000000"
 preserveAspectRatio="xMidYMid meet">

<g transform="translate(0.000000,179.000000) scale(0.100000,-0.100000)"
fill="#000000" stroke="none">
<path d="M0 895 l0 -895 1090 0 1090 0 0 895 0 895 -1090 0 -1090 0 0 -895z
m1078 658 c-22 -5 -24 -33 -4 -33 8 0 18 -5 21 -10 10 -16 -15 -40 -39 -39
-20 2 -20 2 2 6 27 5 29 33 2 33 -15 0 -20 7 -20 25 0 21 5 25 28 24 16 -1 20
-3 10 -6z m90 -5 c30 -30 -2 -93 -36 -71 -21 13 -27 50 -12 69 15 17 32 18 48
2z m-543 -393 c0 -11 4 -23 9 -27 15 -10 -14 -38 -38 -37 -20 2 -20 2 2 6 26
5 30 33 5 33 -17 1 -17 1 0 11 23 14 21 27 -5 32 -20 5 -20 5 2 4 18 -2 25 -8
25 -22z m86 4 c16 -31 -4 -71 -33 -67 -25 3 -33 26 -24 64 8 30 41 32 57 3z
m844 4 c-4 -10 -12 -30 -17 -45 -5 -16 -14 -28 -19 -28 -12 0 -11 11 6 40 19
34 19 38 -7 43 -16 3 -13 5 11 6 28 1 32 -2 26 -16z m80 -28 c0 -34 -3 -40
-22 -43 -16 -2 -26 4 -34 21 -15 33 4 69 34 65 18 -2 22 -10 22 -43z m-1389
-350 c4 -8 -1 -26 -10 -39 -14 -23 -14 -25 2 -29 9 -3 2 -5 -17 -6 l-34 -1 21
23 c29 31 30 61 1 52 -15 -5 -19 -4 -15 4 10 16 46 13 52 -4z m79 -30 c0 -36
-2 -40 -25 -40 -20 0 -26 6 -28 28 -5 42 5 59 30 55 20 -3 23 -9 23 -43z m537
10 c4 -37 -9 -71 -19 -47 -2 6 -13 12 -24 12 -24 0 -24 5 2 41 27 38 36 37 41
-6z m76 23 c30 -30 -2 -93 -36 -71 -21 13 -27 50 -12 69 15 17 32 18 48 2z
m372 0 l-25 -10 23 -9 c33 -13 27 -54 -8 -54 -20 0 -26 6 -28 28 -4 34 13 57
42 56 19 0 19 -1 -4 -11z m95 -33 c0 -34 -3 -40 -22 -43 -16 -2 -26 4 -34 21
-15 33 4 69 34 65 18 -2 22 -10 22 -43z m534 23 c-2 -13 0 -29 4 -35 12 -19
-1 -33 -28 -33 -29 0 -41 16 -25 35 7 8 7 15 1 19 -18 11 0 36 26 36 20 0 24
-4 22 -22z m82 1 c16 -31 -4 -71 -33 -67 -25 3 -33 26 -24 64 8 30 41 32 57 3z
m-1468 -396 c8 -45 3 -53 -31 -52 -24 2 -24 2 -4 6 26 5 30 32 5 34 -17 1 -17
2 0 6 25 6 21 31 -5 36 -21 4 -20 4 3 6 23 1 27 -4 32 -36z m79 2 c4 -37 -9
-71 -19 -47 -2 6 -13 12 -24 12 -24 0 -24 5 2 41 27 38 36 37 41 -6z m460 0
c4 -37 -9 -71 -19 -47 -2 6 -13 12 -24 12 -24 0 -24 5 2 41 27 38 36 37 41 -6z
m61 28 c-29 -6 -30 -29 -2 -36 29 -8 21 -41 -11 -44 -25 -3 -25 -3 -2 7 27 12
29 30 2 30 -15 0 -20 7 -20 25 0 21 4 25 28 24 23 -2 24 -2 5 -6z"/>
<path d="M1130 1535 c0 -9 5 -15 11 -13 6 2 11 8 11 13 0 5 -5 11 -11 13 -6 2
-11 -4 -11 -13z"/>
<path d="M1137 1504 c-8 -8 1 -24 14 -24 5 0 9 7 9 15 0 15 -12 20 -23 9z"/>
<path d="M666 1154 c-9 -24 -8 -26 14 -14 11 6 18 15 15 21 -9 14 -22 11 -29
-7z"/>
<path d="M675 1119 c-4 -6 -5 -13 -2 -16 7 -7 27 6 27 18 0 12 -17 12 -25 -2z"/>
<path d="M1595 1158 c-11 -32 10 -72 25 -48 14 23 12 30 -7 23 -15 -5 -16 -3
-5 8 6 7 12 17 12 21 0 13 -20 9 -25 -4z"/>
<path d="M287 783 c-14 -14 -7 -32 11 -26 15 5 14 4 -2 -9 -14 -11 -16 -17 -7
-23 19 -11 33 9 25 39 -6 26 -15 32 -27 19z"/>
<path d="M826 755 c-3 -8 -1 -15 4 -15 6 0 10 7 10 15 0 8 -2 15 -4 15 -2 0
-6 -7 -10 -15z"/>
<path d="M900 775 c0 -9 5 -15 11 -13 6 2 11 8 11 13 0 5 -5 11 -11 13 -6 2
-11 -4 -11 -13z"/>
<path d="M907 744 c-8 -8 1 -24 14 -24 5 0 9 7 9 15 0 15 -12 20 -23 9z"/>
<path d="M1284 749 c-10 -17 13 -36 27 -22 12 12 4 33 -11 33 -5 0 -12 -5 -16
-11z"/>
<path d="M1365 778 c-11 -32 10 -72 25 -48 14 23 12 30 -7 23 -15 -5 -16 -3
-5 8 6 7 12 17 12 21 0 13 -20 9 -25 -4z"/>
<path d="M1902 779 c2 -6 8 -10 13 -10 5 0 11 4 13 10 2 6 -4 11 -13 11 -9 0
-15 -5 -13 -11z"/>
<path d="M1906 743 c-11 -11 -6 -23 9 -23 8 0 15 4 15 9 0 13 -16 22 -24 14z"/>
<path d="M1976 774 c-9 -24 -8 -26 14 -14 11 6 18 15 15 21 -9 14 -22 11 -29
-7z"/>
<path d="M1985 739 c-4 -6 -5 -13 -2 -16 7 -7 27 6 27 18 0 12 -17 12 -25 -2z"/>
<path d="M596 375 c-3 -8 -1 -15 4 -15 6 0 10 7 10 15 0 8 -2 15 -4 15 -2 0
-6 -7 -10 -15z"/>
<path d="M1056 375 c-3 -8 -1 -15 4 -15 6 0 10 7 10 15 0 8 -2 15 -4 15 -2 0
-6 -7 -10 -15z"/>
</g>
</svg>
