<?xml version="1.0" standalone="no"?>
<!DOCTYPE svg PUBLIC "-//W3C//DTD SVG 20010904//EN"
 "http://www.w3.org/TR/2001/REC-SVG-20010904/DTD/svg10.dtd">
<svg version="1.0" xmlns="http://www.w3.org/2000/svg"
 width="308.000000pt" height="133.000000pt" viewBox="0 0 308.000000 133.000000"
 preserveAspectRatio="xMidYMid meet">

<g transform="translate(0.000000,133.000000) scale(0.100000,-0.100000)"
fill="#000000" stroke="none">
<path d="M0 665 l0 -665 1540 0 1540 0 0 665 0 665 -1540 0 -1540 0 0 -665z
m1403 570 c9 -25 12 -45 6 -45 -5 0 -9 5 -9 10 0 6 -9 10 -20 10 -11 0 -20 -4
-20 -10 0 -5 -5 -10 -11 -10 -6 0 -8 9 -3 23 25 82 36 86 57 22z m-698 -380
c0 -36 -3 -40 -27 -43 -27 -3 -28 -2 -28 43 0 45 1 46 28 43 24 -3 27 -7 27
-43z m1388 38 c-7 -2 -13 -20 -13 -38 0 -18 6 -36 13 -38 6 -3 -4 -5 -23 -5
-19 0 -29 2 -22 5 6 2 12 20 12 38 0 18 -6 36 -12 38 -7 3 3 5 22 5 19 0 29
-2 23 -5z m-1769 -192 c4 -5 -3 -7 -13 -4 -13 3 -21 -2 -25 -15 -10 -30 4 -54
27 -48 14 3 17 2 10 -5 -6 -6 -19 -9 -29 -7 -23 4 -33 66 -12 79 17 11 35 11
42 0z m829 2 c-13 -2 -23 -11 -23 -19 0 -8 10 -15 23 -15 l22 -2 -22 -4 c-13
-2 -24 -13 -26 -26 -2 -12 -5 -1 -6 26 -1 45 0 47 27 46 23 -2 24 -2 5 -6z
m707 -33 c0 -43 -21 -63 -43 -41 -9 9 -8 11 6 6 14 -6 17 -1 17 28 0 25 -5 37
-17 40 -11 3 -7 5 10 6 25 1 27 -2 27 -39z m660 25 c0 -8 5 -15 10 -15 6 0 10
-7 10 -15 0 -18 -16 -20 -23 -2 -3 6 -6 0 -6 -15 -1 -16 -5 -28 -11 -28 -12 0
-13 15 -4 59 7 31 24 43 24 16z m43 -27 c5 -39 3 -58 -7 -47 -8 10 -15 89 -7
89 4 0 11 -19 14 -42z m-2395 -350 c29 -29 7 -78 -35 -78 -21 0 -23 5 -23 45
0 40 2 45 23 45 13 0 28 -5 35 -12z m375 5 c-13 -2 -23 -11 -23 -19 0 -8 10
-15 23 -15 l22 -2 -22 -4 c-13 -2 -23 -11 -23 -18 0 -7 10 -16 23 -18 16 -3
13 -5 -10 -6 -33 -1 -33 0 -33 44 0 44 0 45 33 44 23 -1 26 -3 10 -6z m401 -1
c3 -5 -5 -8 -17 -8 -18 1 -22 -5 -22 -28 0 -16 6 -31 13 -33 6 -3 12 2 12 10
0 9 -6 18 -12 20 -7 3 -3 6 10 6 17 1 22 -5 22 -24 0 -19 -5 -25 -23 -25 -42
0 -64 49 -35 78 14 14 44 16 52 4z m416 -12 c0 -11 7 -20 15 -20 8 0 15 9 15
20 0 11 5 20 10 20 6 0 10 -20 10 -45 0 -25 -4 -45 -10 -45 -5 0 -10 9 -10 20
0 11 -7 20 -15 20 -8 0 -15 -9 -15 -20 0 -11 -4 -20 -10 -20 -5 0 -10 20 -10
45 0 25 5 45 10 45 6 0 10 -9 10 -20z m248 -2 c7 12 18 22 24 22 6 0 4 -8 -5
-18 -10 -10 -17 -22 -17 -27 0 -5 7 -17 17 -27 9 -10 11 -18 6 -18 -6 0 -17 7
-24 16 -12 14 -14 14 -20 -3 -5 -11 -7 1 -7 32 0 37 2 43 7 25 l7 -25 12 23z
m475 -61 c18 -4 17 -5 -5 -6 -27 -1 -28 1 -26 47 l1 47 4 -42 c3 -33 8 -43 26
-46z m218 51 l14 -33 6 35 c6 33 6 32 8 -12 1 -56 -11 -62 -30 -15 l-14 32 -6
-35 c-6 -33 -6 -32 -8 13 -1 55 11 61 30 15z m489 18 c26 -32 -7 -87 -44 -73
-16 6 -23 66 -9 80 11 12 40 8 53 -7z"/>
<path d="M1367 1241 c-3 -14 0 -21 9 -21 16 0 18 9 5 28 -6 10 -10 9 -14 -7z"/>
<path d="M670 875 c0 -9 5 -15 11 -13 6 2 11 8 11 13 0 5 -5 11 -11 13 -6 2
-11 -4 -11 -13z"/>
<path d="M670 835 c0 -9 5 -15 11 -13 6 2 11 8 11 13 0 5 -5 11 -11 13 -6 2
-11 -4 -11 -13z"/>
<path d="M130 285 c0 -25 4 -35 13 -32 16 5 16 59 0 65 -9 2 -13 -8 -13 -33z"/>
<path d="M2744 306 c-9 -23 0 -51 16 -51 10 0 15 10 15 29 0 32 -21 47 -31 22z"/>
</g>
</svg>
